<svg id="Layer_1" enable-background="new 0 0 512 512" height="512" viewBox="0 0 512 512" width="512" xmlns="http://www.w3.org/2000/svg"><g><path d="m353.05 225.61h-194.1c-40.841 0-73.95 33.111-73.95 73.955v138.481c0 40.843 33.109 73.954 73.95 73.954h194.1c40.841 0 73.95-33.111 73.95-73.955v-138.481c0-40.844-33.109-73.954-73.95-73.954z" fill="#d2d5d4"/><path d="m353.05 225.61h-30.904c40.841 0 73.95 33.111 73.95 73.955v138.481c0 40.844-33.109 73.955-73.95 73.955h30.904c40.841 0 73.95-33.111 73.95-73.955v-138.482c0-40.844-33.109-73.954-73.95-73.954z" fill="#c7c9c8"/><path d="m115.904 438.047v-138.484c0-23.775 19.273-43.048 43.048-43.048h194.097c23.775 0 43.048 19.273 43.048 43.048v138.483c0 23.775-19.273 43.048-43.048 43.048h-194.097c-23.775.001-43.048-19.273-43.048-43.047z" fill="#497285"/><path d="m146.807 389.951v-119.212c0-14.544 11.791-26.335 26.335-26.335h165.716c14.544 0 26.335 11.791 26.335 26.335v119.212c0 14.544-11.791 26.335-26.335 26.335h-165.716c-14.544 0-26.335-11.791-26.335-26.335z" fill="#426778"/><path d="m187.352 334.892v-86.762c0-12.438 10.083-22.52 22.52-22.52h92.256c12.438 0 22.52 10.083 22.52 22.52v86.762c0 12.438-10.083 22.52-22.52 22.52h-92.256c-12.438 0-22.52-10.082-22.52-22.52z" fill="#497285"/><path d="m225.095 101.451v174.312c0 17.069 13.837 30.905 30.905 30.905 17.069 0 30.905-13.837 30.905-30.905v-174.312z" fill="#c7c9c8"/><path d="m256 101.451v174.312c0 11.437-6.218 21.416-15.453 26.761 4.547 2.631 9.821 4.145 15.453 4.145 17.069 0 30.905-13.837 30.905-30.905v-174.313z" fill="#b8bab9"/><circle cx="256" cy="73.143" fill="#d2d5d4" r="73.143"/><path d="m256 0c-14.667 0-28.323 4.319-39.77 11.754-16.082 10.445-22.353 30.864-15.131 48.628 9.903 24.362 30.764 41.149 54.902 41.149 24.481 0 45.591-17.269 55.318-42.193 6.656-17.056.65-36.691-14.538-46.916-11.651-7.843-25.68-12.422-40.781-12.422z" fill="#497285"/><path d="m281.755 27.011c-4.143 0-7.5 3.358-7.5 7.5v3.728h-10.755v-3.728c0-4.142-3.357-7.5-7.5-7.5s-7.5 3.358-7.5 7.5v3.728h-10.755v-3.728c0-4.142-3.357-7.5-7.5-7.5s-7.5 3.358-7.5 7.5v22.456c0 4.142 3.357 7.5 7.5 7.5s7.5-3.358 7.5-7.5v-3.728h10.755v3.728c0 4.142 3.357 7.5 7.5 7.5s7.5-3.358 7.5-7.5v-3.728h10.755v3.728c0 4.142 3.357 7.5 7.5 7.5s7.5-3.358 7.5-7.5v-22.456c0-4.142-3.358-7.5-7.5-7.5z" fill="#ffde5c"/></g></svg>